#!OML:ASF F:\VICON\USERDATA\INSTALL\rory3\rory3.ASF
:FULLY-SPECIFIED
:DEGREES
940
root 0.200781 17.7013 6.05865 -541.366 9.42364 -179.643
lowerback 20.2087 -0.298259 -1.71082
upperback 1.91182 0.0516317 3.78331
thorax -9.24938 0.363579 5.09222
lowerneck -9.76843 -0.174783 -1.4293
upperneck 19.1974 1.26538 -2.78501
head 7.52552 0.517503 -0.518374
rclavicle 3.37934e-015 -1.59028e-014
rhumerus -42.4111 -9.17818 -64.2135
rradius 114.469
rwrist 23.9995
rhand -22.8301 8.19864
rfingers 7.12502
rthumb 3.60717 -21.7506
lclavicle 3.37934e-015 -1.59028e-014
lhumerus -50.8508 11.4056 79.1173
lradius 44.5919
lwrist 10.6688
lhand -11.465 51.2567
lfingers 7.12502
lthumb 14.5726 80.7248
rfemur -11.8572 -0.0878172 23.5227
rtibia 41.0136
rfoot -24.3426 -9.04471
rtoes 10.4086
lfemur -12.7271 -7.24283 -23.7524
ltibia 37.0038
lfoot -18.5829 -1.51732
ltoes 5.90803
941
root 0.212047 17.706 6.07142 -541.237 9.5416 -179.53
lowerback 20.4949 -0.308679 -1.62065
upperback 1.80017 0.0602739 3.80584
thorax -9.53156 0.371132 5.073
lowerneck -9.91512 -0.156905 -1.45431
upperneck 19.4053 1.31998 -2.79694
head 7.62092 0.54052 -0.512386
rclavicle 1.64991e-014 -4.29375e-014
rhumerus -41.6706 -8.01097 -65.2455
rradius 113.311
rwrist 24.9404
rhand -23.2937 8.33933
rfingers 7.12502
rthumb 3.15943 -21.617
lclavicle 1.64991e-014 -4.29375e-014
lhumerus -50.5656 11.0397 79.4352
lradius 44.8639
lwrist 10.6994
lhand -11.544 51.2915
lfingers 7.12502
lthumb 14.4964 80.7651
rfemur -11.9841 -0.0353968 23.6939
rtibia 40.9095
rfoot -24.2305 -8.89355
rtoes 10.7566
lfemur -12.9537 -7.21853 -23.5691
ltibia 37.126
lfoot -18.5497 -1.26161
ltoes 5.23744
942
root 0.222716 17.7101 6.07836 -541.066 9.46675 -179.59
lowerback 20.5303 -0.33265 -1.63134
upperback 1.7628 0.0199886 3.78063
thorax -9.58845 0.351701 5.0647
lowerneck -10.1434 -0.170483 -1.65159
upperneck 19.5801 1.30597 -2.58032
head 7.71749 0.534876 -0.409369
rclavicle -1.21259e-014 -5.56597e-014
rhumerus -40.7754 -7.05553 -66.2596
rradius 111.811
rwrist 25.8425
rhand -23.8273 8.72333
rfingers 7.12502
rthumb 2.64411 -21.24
lclavicle -1.21259e-014 -5.56597e-014
lhumerus -50.0839 10.8141 79.7564
lradius 45.2005
lwrist 10.4742
lhand -11.3947 51.9225
lfingers 7.12502
lthumb 14.6403 81.3857
rfemur -12.1197 -0.271622 23.6371
rtibia 40.7759
rfoot -24.2154 -8.69221
rtoes 11.2319
lfemur -13.2201 -7.25831 -23.6201
ltibia 37.2566
lfoot -18.7069 -0.831161
ltoes 2.92722
943
root 0.238242 17.7151 6.08048 -540.958 9.51358 -179.686
lowerback 20.4494 -0.314659 -1.76111
upperback 1.78452 0.0106409 3.77298
thorax -9.51845 0.349673 5.13155
lowerneck -10.1594 -0.149358 -1.81306
upperneck 19.5239 1.33595 -2.47845
head 7.70085 0.544972 -0.346369
rclavicle -2.50469e-014 4.37326e-014
rhumerus -39.9083 -6.17561 -67.223
rradius 109.978
rwrist 26.8135
rhand -24.0881 9.55814
rfingers 7.12502
rthumb 2.39224 -20.4082
lclavicle -2.50469e-014 4.37326e-014
lhumerus -49.6127 10.6088 80.0975
lradius 45.5915
lwrist 10.2716
lhand -11.046 52.3694
lfingers 7.12502
lthumb 14.9762 81.8078
rfemur -12.2204 -0.269267 23.5929
rtibia 40.6416
rfoot -24.1742 -8.64953
rtoes 11.4917
lfemur -13.4013 -7.17201 -23.7114
ltibia 37.3624
lfoot -18.8043 -0.25593
ltoes -0.233935
944
root 0.250912 17.7226 6.08586 -540.807 9.64624 -179.522
lowerback 20.4814 -0.317039 -1.61529
upperback 1.81297 0.0559061 3.83949
thorax -9.50963 0.369888 5.10785
lowerneck -10.3785 -0.105054 -1.98289
upperneck 19.5194 1.40785 -2.40594
head 7.73828 0.566834 -0.287379
rclavicle -1.94809e-014 3.97569e-015
rhumerus -39.2532 -5.2114 -68.313
rradius 108.102
rwrist 27.65
rhand -24.764 10.2833
rfingers 7.12502
rthumb 1.73949 -19.6894
lclavicle -1.94809e-014 3.97569e-015
lhumerus -49.0364 10.3255 80.4826
lradius 45.8038
lwrist 10.1472
lhand -11.2333 52.3518
lfingers 7.12502
lthumb 14.7958 81.8037
rfemur -12.3678 -0.150722 23.8498
rtibia 40.5219
rfoot -23.9395 -8.82165
rtoes 10.4418
lfemur -13.6287 -7.24486 -23.503
ltibia 37.4635
lfoot -18.8382 0.195645
ltoes -1.11681
945
root 0.261098 17.7224 6.09063 -540.656 9.78869 -179.313
lowerback 20.5714 -0.328371 -1.37668
upperback 1.78326 0.106564 3.8924
thorax -9.59793 0.389616 5.01691
lowerneck -10.4022 -0.0844327 -2.03581
upperneck 19.4461 1.45144 -2.46868
head 7.71908 0.576574 -0.295213
rclavicle -2.38542e-015 -4.77083e-015
rhumerus -38.7592 -4.17091 -69.3539
rradius 105.968
rwrist 28.2373
rhand -25.6118 10.8066
rfingers 7.12502
rthumb 0.920654 -19.1712
lclavicle -2.38542e-015 -4.77083e-015
lhumerus -48.653 10.1892 80.7189
lradius 46.1881
lwrist 9.70107
lhand -11.0334 52.2968
lfingers 7.12502
lthumb 14.9883 81.7343
rfemur -12.4781 -0.0899142 24.1187
rtibia 40.4437
rfoot -23.7398 -8.85704
rtoes 9.46015
lfemur -13.8064 -7.32781 -23.2453
ltibia 37.5584
lfoot -19.0315 0.582072
ltoes -1.63926
946
root 0.271921 17.724 6.0999 -540.401 9.82043 -179.37
lowerback 20.5063 -0.34063 -1.42094
upperback 1.68651 0.0701519 3.89729
thorax -9.66635 0.37192 5.06018
lowerneck -10.4775 -0.261501 -2.58963
upperneck 19.6775 1.20773 -1.87977
head 7.80276 0.473998 -0.0320742
rclavicle 5.96354e-016 -5.64548e-014
rhumerus -38.2054 -3.46369 -70.251
rradius 103.375
rwrist 29.1144
rhand -26.1305 11.7208
rfingers 7.12502
rthumb 0.419715 -18.2586
lclavicle 5.96354e-016 -5.64548e-014
lhumerus -48.4021 9.8949 81.0376
lradius 46.7456
lwrist 9.66088
lhand -11.0435 52.1118
lfingers 7.12502
lthumb 14.9786 81.5501
rfemur -12.8067 -0.0512102 24.0768
rtibia 40.4603
rfoot -23.6523 -8.64585
rtoes 9.45898
lfemur -14.137 -7.42062 -23.2518
ltibia 37.6081
lfoot -19.1236 0.849837
ltoes -1.33219
947
root 0.288486 17.724 6.10979 -540.169 9.88329 -179.629
lowerback 20.3599 -0.24162 -1.72593
upperback 1.66217 0.111665 3.84417
thorax -9.61646 0.396692 5.16394
lowerneck -10.1178 -0.190103 -2.30776
upperneck 19.2483 1.28279 -2.22181
head 7.59941 0.502768 -0.186255
rclavicle 8.34896e-015 -3.97569e-014
rhumerus -37.5555 -3.11105 -71.0759
rradius 100.462
rwrist 30.0921
rhand -26.9367 12.8196
rfingers 7.12502
rthumb -0.358931 -17.1598
lclavicle 8.34896e-015 -3.97569e-014
lhumerus -47.8001 9.46738 81.4164
lradius 47.0467
lwrist 9.74487
lhand -11.0662 52.0737
lfingers 7.12502
lthumb 14.9568 81.5136
rfemur -13.1939 0.0283977 23.8279
rtibia 40.5221
rfoot -23.5423 -8.53571
rtoes 9.63692
lfemur -14.5134 -7.24573 -23.4584
ltibia 37.6547
lfoot -19.039 1.08493
ltoes -1.1773
948
root 0.301467 17.7232 6.11134 -540.107 9.80204 -180.058
lowerback 20.267 -0.250055 -2.1105
upperback 1.70448 -0.00502768 3.74802
thorax -9.50466 0.348314 5.30969
lowerneck -9.94984 -0.13092 -2.25331
upperneck 18.8259 1.33479 -2.36081
head 7.43186 0.51678 -0.237916
rclavicle 2.38542e-014 -3.18055e-014
rhumerus -36.8185 -2.53835 -72.0462
rradius 97.269
rwrist 30.5246
rhand -28.7643 13.9142
rfingers 7.12502
rthumb -2.12409 -16.0549
lclavicle 2.38542e-014 -3.18055e-014
lhumerus -47.2343 9.2206 81.7603
lradius 47.3375
lwrist 9.85086
lhand -11.1773 52.0287
lfingers 7.12502
lthumb 14.8497 81.4765
rfemur -13.3702 -0.0622519 23.3526
rtibia 40.6244
rfoot -23.6211 -8.29911
rtoes 9.72847
lfemur -14.693 -7.07092 -23.8907
ltibia 37.6841
lfoot -19.0185 1.12044
ltoes -1.2763
